<svg xmlns="http://www.w3.org/2000/svg" viewBox="0 0 400 400">
  <defs>
    <linearGradient id="bg" x1="0%" y1="0%" x2="100%" y2="100%">
      <stop offset="0%" style="stop-color:#ffecd2;stop-opacity:1" />
      <stop offset="100%" style="stop-color:#fcb69f;stop-opacity:1" />
    </linearGradient>
  </defs>
  <rect width="400" height="400" rx="12" fill="url(#bg)"/>
  <!-- 泰迪熊 -->
  <circle cx="200" cy="150" r="50" fill="#fff" opacity="0.95"/>
  <circle cx="170" cy="110" r="18" fill="#fff" opacity="0.85"/>
  <circle cx="230" cy="110" r="18" fill="#fff" opacity="0.85"/>
  <circle cx="170" cy="110" r="10" fill="rgba(252,182,159,0.4)"/>
  <circle cx="230" cy="110" r="10" fill="rgba(252,182,159,0.4)"/>
  <circle cx="190" cy="145" r="4" fill="#666" opacity="0.6"/>
  <circle cx="210" cy="145" r="4" fill="#666" opacity="0.6"/>
  <ellipse cx="200" cy="158" rx="8" ry="6" fill="#e8a088" opacity="0.8"/>
  <path d="M192 165 Q200 175 208 165" fill="none" stroke="#e8a088" stroke-width="2" opacity="0.6"/>
  <!-- 身体 -->
  <ellipse cx="200" cy="230" rx="40" ry="45" fill="#fff" opacity="0.9"/>
  <ellipse cx="200" cy="225" rx="20" ry="18" fill="rgba(252,182,159,0.2)"/>
  <!-- 手臂 -->
  <ellipse cx="155" cy="215" rx="18" ry="25" fill="#fff" opacity="0.85" transform="rotate(-15 155 215)"/>
  <ellipse cx="245" cy="215" rx="18" ry="25" fill="#fff" opacity="0.85" transform="rotate(15 245 215)"/>
  <!-- 星星装饰 -->
  <text x="80" y="80" font-size="20" fill="#fff" opacity="0.3">★</text>
  <text x="310" y="310" font-size="24" fill="#fff" opacity="0.25">★</text>
  <text x="300" y="90" font-size="14" fill="#fff" opacity="0.2">★</text>
</svg>